<?xml version="1.0" encoding="UTF-8" standalone="no"?>
<!DOCTYPE svg PUBLIC "-//W3C//DTD SVG 1.1//EN"
 "http://www.w3.org/Graphics/SVG/1.1/DTD/svg11.dtd">
<!-- Generated by graphviz version 14.1.3 (20260303.0454)
 -->
<!-- Title: LehmerDAG Pages: 1 -->
<svg width="293pt" height="174pt"
 viewBox="0.00 0.00 293.00 174.00" xmlns="http://www.w3.org/2000/svg" xmlns:xlink="http://www.w3.org/1999/xlink">
<g id="graph0" class="graph" transform="scale(1 1) rotate(0) translate(4 170.25)">
<title>LehmerDAG</title>
<polygon fill="white" stroke="none" points="-4,4 -4,-170.25 288.5,-170.25 288.5,4 -4,4"/>
<text xml:space="preserve" text-anchor="middle" x="142.25" y="-150.85" font-family="Arial" font-size="12.00">Lehmer Lean Dependency DAG (current files only)</text>
<g id="clust1" class="cluster">
<title>cluster_basic</title>
<path fill="none" stroke="#cfd8dc" d="M41.38,-8C41.38,-8 243.12,-8 243.12,-8 249.12,-8 255.12,-14 255.12,-20 255.12,-20 255.12,-124 255.12,-124 255.12,-130 249.12,-136 243.12,-136 243.12,-136 41.38,-136 41.38,-136 35.38,-136 29.38,-130 29.38,-124 29.38,-124 29.38,-20 29.38,-20 29.38,-14 35.38,-8 41.38,-8"/>
<text xml:space="preserve" text-anchor="middle" x="142.25" y="-120.6" font-family="Arial" font-size="12.00">Basic</text>
</g>
<!-- Basic.Defs -->
<g id="node1" class="node">
<title>Basic.Defs</title>
<path fill="white" stroke="#444444" d="M90.12,-79C90.12,-79 49.38,-79 49.38,-79 43.38,-79 37.38,-73 37.38,-67 37.38,-67 37.38,-55 37.38,-55 37.38,-49 43.38,-43 49.38,-43 49.38,-43 90.12,-43 90.12,-43 96.12,-43 102.12,-49 102.12,-55 102.12,-55 102.12,-67 102.12,-67 102.12,-73 96.12,-79 90.12,-79"/>
<text xml:space="preserve" text-anchor="middle" x="69.75" y="-57.5" font-family="Arial" font-size="10.00">Basic.Defs</text>
</g>
<!-- Basic.Totient -->
<g id="node2" class="node">
<title>Basic.Totient</title>
<path fill="white" stroke="#444444" d="M217.12,-52C217.12,-52 168.12,-52 168.12,-52 162.12,-52 156.12,-46 156.12,-40 156.12,-40 156.12,-28 156.12,-28 156.12,-22 162.12,-16 168.12,-16 168.12,-16 217.12,-16 217.12,-16 223.12,-16 229.12,-22 229.12,-28 229.12,-28 229.12,-40 229.12,-40 229.12,-46 223.12,-52 217.12,-52"/>
<text xml:space="preserve" text-anchor="middle" x="192.62" y="-30.5" font-family="Arial" font-size="10.00">Basic.Totient</text>
</g>
<!-- Basic.Defs&#45;&gt;Basic.Totient -->
<g id="edge1" class="edge">
<title>Basic.Defs&#45;&gt;Basic.Totient</title>
<path fill="none" stroke="#666666" d="M102.51,-53.91C116.32,-50.82 132.73,-47.16 147.68,-43.82"/>
<polygon fill="#666666" stroke="#666666" points="148.04,-46.25 154.34,-42.33 146.97,-41.46 148.04,-46.25"/>
</g>
<!-- Basic.OddSquarefree -->
<g id="node3" class="node">
<title>Basic.OddSquarefree</title>
<path fill="white" stroke="#444444" d="M235.12,-106C235.12,-106 150.12,-106 150.12,-106 144.12,-106 138.12,-100 138.12,-94 138.12,-94 138.12,-82 138.12,-82 138.12,-76 144.12,-70 150.12,-70 150.12,-70 235.12,-70 235.12,-70 241.12,-70 247.12,-76 247.12,-82 247.12,-82 247.12,-94 247.12,-94 247.12,-100 241.12,-106 235.12,-106"/>
<text xml:space="preserve" text-anchor="middle" x="192.62" y="-84.5" font-family="Arial" font-size="10.00">Basic.OddSquarefree</text>
</g>
<!-- Basic.Defs&#45;&gt;Basic.OddSquarefree -->
<g id="edge2" class="edge">
<title>Basic.Defs&#45;&gt;Basic.OddSquarefree</title>
<path fill="none" stroke="#666666" d="M102.51,-68.09C110.84,-69.95 120.12,-72.03 129.45,-74.11"/>
<polygon fill="#666666" stroke="#666666" points="128.8,-76.48 136.17,-75.61 129.87,-71.7 128.8,-76.48"/>
</g>
</g>
</svg>
